<?xml version="1.0" encoding="UTF-8"?>
<svg id="Layer_2" data-name="Layer 2" xmlns="http://www.w3.org/2000/svg" viewBox="0 0 39.56 39.56">
  <defs>
    <style>
      .cls-1 {
        fill: none;
        stroke: #222221;
        stroke-miterlimit: 10;
        stroke-width: 1.5px;
      }

      .cls-2 {
        fill: #222221;
      }
    </style>
  </defs>
  <g id="Capa_1" data-name="Capa 1">
    <g>
      <rect class="cls-1" x=".75" y=".75" width="38.06" height="38.06" rx="19.03" ry="19.03"/>
      <g>
        <path class="cls-2" d="M16.94,26.09c.58-.12,1.08-.34,1.51-.67,.38-.28,.69-.63,.94-1.05,.4-.63,.59-1.34,.59-2.13s-.17-1.42-.52-1.95c-.35-.54-.86-.93-1.54-1.18,.45-.23,.79-.48,1.02-.76,.41-.49,.62-1.15,.62-1.96s-.2-1.47-.61-2.03c-.68-.92-1.83-1.39-3.45-1.42h-6.44v13.33h6c.68,0,1.31-.06,1.88-.18Zm-5.23-10.83h2.9c.64,0,1.16,.07,1.57,.21,.48,.2,.72,.61,.72,1.23,0,.56-.18,.95-.54,1.17-.36,.22-.83,.33-1.41,.33h-3.24v-2.94Zm0,8.7v-3.55h3.28c.57,0,1.02,.08,1.33,.23,.57,.26,.85,.73,.85,1.43,0,.82-.29,1.37-.88,1.66-.32,.16-.77,.23-1.35,.23h-3.24Z"/>
        <g>
          <path class="cls-2" d="M22.24,25.4c1,.81,2.16,1.21,3.47,1.21,1.59,0,2.83-.48,3.71-1.44,.57-.6,.89-1.2,.96-1.78h-2.63c-.15,.29-.33,.51-.53,.68-.37,.3-.84,.45-1.43,.45-.55,0-1.03-.12-1.42-.37-.65-.4-.99-1.09-1.03-2.08h7.18c.01-.85-.02-1.5-.08-1.96-.12-.77-.38-1.45-.79-2.04-.45-.66-1.02-1.15-1.7-1.46-.69-.31-1.46-.46-2.32-.46-1.44,0-2.62,.46-3.52,1.37-.9,.91-1.36,2.22-1.36,3.93,0,1.82,.5,3.14,1.5,3.95Zm1.84-6.55c.36-.37,.88-.56,1.54-.56,.61,0,1.12,.18,1.53,.53,.41,.35,.64,.87,.69,1.56h-4.44c.09-.64,.32-1.15,.69-1.53Z"/>
          <rect class="cls-2" x="22.55" y="13.72" width="5.79" height="1.34"/>
        </g>
      </g>
    </g>
  </g>
</svg>