<?xml version="1.0" encoding="UTF-8"?>
<svg id="Layer_2" data-name="Layer 2" xmlns="http://www.w3.org/2000/svg" viewBox="0 0 39.56 39.56">
  <defs>
    <style>
      .cls-1 {
        fill: none;
        stroke: #222221;
        stroke-miterlimit: 10;
        stroke-width: 1.5px;
      }

      .cls-2 {
        fill: #222221;
      }
    </style>
  </defs>
  <g id="Capa_1" data-name="Capa 1">
    <g>
      <rect class="cls-1" x=".75" y=".75" width="38.06" height="38.06" rx="19.03" ry="19.03"/>
      <g>
        <g>
          <rect class="cls-2" x="11.15" y="15.54" width="3.94" height="12.72"/>
          <path class="cls-2" d="M13.1,13.87c1.29,0,2.33-1.05,2.33-2.35s-1.04-2.35-2.33-2.35-2.33,1.05-2.33,2.35,1.04,2.35,2.33,2.35Z"/>
        </g>
        <path class="cls-2" d="M21.39,21.58c0-1.79,.82-2.85,2.4-2.85,1.45,0,2.14,1.02,2.14,2.85v6.68h3.92v-8.06c0-3.41-1.93-5.06-4.63-5.06s-3.83,2.1-3.83,2.1v-1.71h-3.78v12.72h3.78v-6.68Z"/>
      </g>
    </g>
  </g>
</svg>