<?xml version="1.0" encoding="UTF-8"?>
<svg id="Layer_2" data-name="Layer 2" xmlns="http://www.w3.org/2000/svg" viewBox="0 0 39.56 39.56">
  <defs>
    <style>
      .cls-1 {
        fill: #222221;
        fill-rule: evenodd;
      }

      .cls-2 {
        fill: none;
        stroke: #222221;
        stroke-miterlimit: 10;
        stroke-width: 1.5px;
      }
    </style>
  </defs>
  <g id="Capa_1" data-name="Capa 1">
    <g>
      <path class="cls-2" d="M19.78,38.81h0C9.27,38.81,.75,30.29,.75,19.78H.75C.75,9.27,9.27,.75,19.78,.75h0c10.51,0,19.03,8.52,19.03,19.03h0c0,10.51-8.52,19.03-19.03,19.03Z"/>
      <g>
        <path class="cls-1" d="M30.21,19.25c-.14-5.5-4.67-9.91-10.24-9.91s-10,4.31-10.24,9.73c0,.15,0,.3,0,.45,0,1.92,.54,3.72,1.47,5.25l-1.85,5.46,5.68-1.8c1.47,.81,3.16,1.27,4.95,1.27,5.66,0,10.25-4.55,10.25-10.17,0-.09,0-.17,0-.26Zm-10.24,8.81c-1.75,0-3.38-.52-4.74-1.42l-3.31,1.06,1.07-3.18c-1.03-1.41-1.64-3.14-1.64-5.01,0-.28,.01-.56,.04-.83,.42-4.33,4.11-7.72,8.57-7.72s8.24,3.48,8.59,7.88c.02,.22,.03,.44,.03,.67,0,4.72-3.87,8.55-8.62,8.55Z"/>
        <path class="cls-1" d="M24.67,21.57c-.25-.12-1.49-.73-1.72-.81-.23-.09-.4-.12-.57,.12-.17,.25-.65,.81-.8,.97-.15,.17-.29,.19-.55,.06-.25-.12-1.06-.38-2.02-1.24-.74-.66-1.25-1.47-1.4-1.72-.14-.25-.01-.38,.11-.51,.11-.11,.25-.29,.38-.44,.03-.04,.06-.08,.09-.12,.06-.09,.1-.18,.16-.3,.09-.17,.04-.31-.02-.44-.06-.12-.57-1.35-.78-1.85-.21-.5-.42-.41-.57-.41s-.31-.02-.48-.02-.44,.06-.67,.31c-.23,.25-.88,.85-.88,2.08,0,.29,.05,.58,.13,.85,.25,.88,.8,1.6,.9,1.73,.12,.16,1.74,2.76,4.29,3.77,2.56,.99,2.56,.66,3.02,.62,.46-.04,1.49-.6,1.69-1.19,.21-.58,.21-1.08,.15-1.19-.06-.1-.23-.16-.48-.29Z"/>
      </g>
    </g>
  </g>
</svg>